# xmcd
#
# Track frame offsets:
# 150
# 15276
# 29494
# 42284
# 57747
# 71578
# 86729
# 100733
# 117720
# 133658
# 147251
# 161967
# 178079
# 191775
# 205183
#
# Disc length: 2937 seconds
#
#
# Revision: 0
# Processed by: cddbd v1.5.1PL2 Copyright (c) Steve Scherf et al.
# Submitted via: FreeRIP 2.945 
#
DISCID=e30b770f
DTITLE=CARLO BRUNNER and PHILIPP METTLER - UND IHRE SINGENDEN SAXOPHONE
DYEAR=2006
DGENRE=Instrumental
TTITLE0=01-ABER DICH GIBT' S NUR EINMAL FÜR MICH
TTITLE1=02-CHE BELLA COSA
TTITLE2=03-VERGISS DEN FLIRT
TTITLE3=04-ICH BIN SO GERN BEI DIR
TTITLE4=05-LA BARCA BIANCA
TTITLE5=06-TU SEI UN ANGELO
TTITLE6=07-SOLANG' IM HERZEN NOCH TRAUME SIND
TTITLE7=08-ES WAR ROMANTICO
TTITLE8=09-UND WENN DIE NACHT BEGINNT
TTITLE9=10-KOMM ZU MIR ICH TANZ MIT DIR
TTITLE10=11-GLÜCK UND TRAURIGKEIT
TTITLE11=12-EIN HAUCH VON EWIGKEIT
TTITLE12=13-WEISSE ROSEN VOM LAGO MAGGIORE
TTITLE13=14-DEINE LIEBE STREICHELT MICH
TTITLE14=15-ALOHA
EXTD=RECORDING FORMAT DDD
EXTT0=
EXTT1=
EXTT2=
EXTT3=
EXTT4=
EXTT5=
EXTT6=
EXTT7=
EXTT8=
EXTT9=
EXTT10=
EXTT11=
EXTT12=
EXTT13=
EXTT14=
PLAYORDER=
